M48
; DRILL file {KiCad 7.0.2} date Tue May 23 14:23:01 2023
; FORMAT={-:-/ absolute / inch / decimal}
; #@! TF.CreationDate,2023-05-23T14:23:01-07:00
; #@! TF.GenerationSoftware,Kicad,Pcbnew,7.0.2
; #@! TF.FileFunction,Plated,1,2,PTH
FMAT,2
INCH
; #@! TA.AperFunction,Plated,PTH,ViaDrill
T1C0.0120
; #@! TA.AperFunction,Plated,PTH,ViaDrill
T2C0.0280
; #@! TA.AperFunction,Plated,PTH,ComponentDrill
T3C0.0350
; #@! TA.AperFunction,Plated,PTH,ComponentDrill
T4C0.0390
; #@! TA.AperFunction,Plated,PTH,ComponentDrill
T5C0.0402
; #@! TA.AperFunction,Plated,PTH,ViaDrill
T6C0.1000
; #@! TA.AperFunction,Plated,PTH,ComponentDrill
T7C0.1340
%
G90
G05
T1
X1.803Y3.446
X1.803Y1.7
X2.031Y2.255
X2.048Y1.8
X2.153Y2.753
X2.26Y2.161
X2.269Y2.653
X2.2895Y3.286
X2.3164Y2.18
X2.386Y2.468
X2.408Y2.368
X2.408Y2.18
X2.4252Y2.0276
X2.4449Y2.7008
X2.461Y2.1
X2.471Y2.7913
X2.488Y2.171
X2.548Y2.286
X2.6024Y2.622
X2.6025Y3.353
X2.655Y1.32
X2.6693Y1.9213
X2.6732Y1.7559
X2.7165Y2.4488
X2.717Y2.772
X2.739Y3.415
X2.748Y2.1535
X2.765Y3.31
X2.7867Y3.3957
X2.826Y2.15
X2.827Y2.425
X2.8346Y2.2756
X2.852Y1.8865
X2.8701Y2.4252
X2.8968Y2.4449
X2.8976Y1.563
X2.9055Y1.2992
X2.922Y2.994
X2.9445Y3.3695
X2.994Y2.772
X3.019Y2.734
X3.0394Y1.5709
X3.04Y3.56
X3.051Y3.084
X3.0591Y2.304
X3.069Y1.843
X3.07Y3.014
X3.076Y2.6024
X3.197Y2.734
X3.2345Y2.833
X3.2385Y2.084
X3.301Y2.6157
X3.302Y2.772
X3.303Y1.666
X3.3249Y2.058
X3.335Y1.956
X3.335Y1.531
X3.3425Y2.1615
X3.4055Y2.3583
X3.4094Y2.1575
X3.4134Y2.0591
X3.419Y2.6827
X3.4449Y2.5394
X3.4488Y1.8346
X3.462Y2.815
X3.472Y1.745
X3.678Y1.8
T2
X2.347Y3.2925
X2.3865Y2.7283
X2.74Y1.68
X2.9055Y2.56
X3.224Y3.004
X3.2683Y2.9598
T3
X2.5Y2.0
X2.5Y1.9
X2.5Y1.8
X2.5Y1.7
X2.5Y1.6
X2.5Y1.5
X2.6Y2.1
X2.6Y2.0
X2.6Y1.9
X2.6Y1.8
X2.6Y1.7
X2.6Y1.6
X2.6Y1.5
X2.6Y1.4
X2.7Y2.1
X2.7Y2.0
X2.7Y1.5
X2.7Y1.4
X2.8Y2.1
X2.8Y2.0
X2.8Y1.5
X2.8Y1.4
X2.9Y2.1
X2.9Y2.0
X2.9Y1.5
X2.9Y1.4
X3.0Y2.1
X3.0Y2.0
X3.0Y1.5
X3.0Y1.4
X3.1Y2.1
X3.1Y2.0
X3.1Y1.9
X3.1Y1.8
X3.1Y1.7
X3.1Y1.6
X3.1Y1.5
X3.1Y1.4
X3.2Y2.0
X3.2Y1.9
X3.2Y1.8
X3.2Y1.7
X3.2Y1.6
X3.2Y1.5
T4
X1.9Y2.7
X1.9Y2.6
X1.9Y2.5
X1.9Y2.4
X1.9Y2.3
X1.9Y2.2
X1.9Y2.1
X1.9Y2.0
X1.9Y1.9
X1.9Y1.8
X1.9Y1.7
X1.9Y1.6
X1.9Y1.5
X1.9Y1.4
X1.9Y1.3
X1.9Y1.2
X1.9Y1.1
X1.9Y1.0
X1.9Y0.9
X1.9Y0.8
X1.9Y0.6
X2.0Y0.6
X2.1Y0.6
X2.15Y2.7
X2.15Y2.6
X2.15Y2.5
X2.15Y2.4
X2.15Y2.3
X2.15Y2.2
X2.15Y2.1
X2.15Y2.0
X2.15Y1.9
X2.15Y1.8
X2.15Y1.7
X2.15Y1.6
X2.15Y1.5
X2.15Y1.4
X2.15Y1.3
X2.15Y1.2
X2.15Y1.1
X2.15Y1.0
X2.15Y0.9
X2.15Y0.8
X2.2Y0.6
X2.3Y0.6
X2.4Y0.6
X2.5Y0.6
X2.6Y0.6
X2.7Y0.6
X2.8Y0.6
X2.9Y0.6
X3.0Y0.6
X3.1Y0.6
X3.2Y0.6
X3.3Y0.6
X3.4Y0.6
X3.5Y0.6
X3.55Y2.7
X3.55Y2.6
X3.55Y2.5
X3.55Y2.4
X3.55Y2.3
X3.55Y2.2
X3.55Y2.1
X3.55Y2.0
X3.55Y1.9
X3.55Y1.8
X3.55Y1.7
X3.55Y1.6
X3.55Y1.5
X3.55Y1.4
X3.55Y1.3
X3.55Y1.2
X3.55Y1.1
X3.55Y1.0
X3.55Y0.9
X3.55Y0.8
X3.6Y0.6
X3.7Y0.6
X3.8Y2.7
X3.8Y2.6
X3.8Y2.5
X3.8Y2.4
X3.8Y2.3
X3.8Y2.2
X3.8Y2.1
X3.8Y2.0
X3.8Y1.9
X3.8Y1.8
X3.8Y1.7
X3.8Y1.6
X3.8Y1.5
X3.8Y1.4
X3.8Y1.3
X3.8Y1.2
X3.8Y1.1
X3.8Y1.0
X3.8Y0.9
X3.8Y0.8
X3.8Y0.6
T5
X2.0Y3.46
X2.0Y3.16
X2.1Y3.46
X2.1Y3.16
X2.2Y3.46
X2.2Y3.16
X2.333Y2.363
X2.333Y2.263
X2.46Y3.46
X2.46Y3.16
X2.56Y3.46
X2.56Y3.16
X2.66Y3.46
X2.66Y3.16
X2.94Y3.46
X2.94Y3.16
X3.04Y3.46
X3.04Y3.16
X3.1Y0.9
X3.14Y3.46
X3.14Y3.16
X3.2Y0.9
X3.3Y0.9
X3.44Y3.46
X3.54Y3.46
X3.64Y3.46
T6
X2.9528Y1.6457
T7
X2.1Y2.9
X2.8Y0.9
X3.6Y2.9
T0
M30
