%TF.GenerationSoftware,KiCad,Pcbnew,7.0.2*%
%TF.CreationDate,2023-05-23T14:23:01-07:00*%
%TF.ProjectId,CW308T_87C51,43573330-3854-45f3-9837-4335312e6b69,rev?*%
%TF.SameCoordinates,Original*%
%TF.FileFunction,Paste,Top*%
%TF.FilePolarity,Positive*%
%FSLAX46Y46*%
G04 Gerber Fmt 4.6, Leading zero omitted, Abs format (unit mm)*
G04 Created by KiCad (PCBNEW 7.0.2) date 2023-05-23 14:23:01*
%MOMM*%
%LPD*%
G01*
G04 APERTURE LIST*
%ADD10R,0.635000X1.270000*%
%ADD11O,0.550000X1.450000*%
%ADD12O,1.450000X0.550000*%
G04 APERTURE END LIST*
%TO.C,SJ1*%
G36*
X76980000Y25200000D02*
G01*
X79420000Y25200000D01*
X79420000Y27400000D01*
X76980000Y27400000D01*
X76980000Y25200000D01*
G37*
%TD*%
D10*
%TO.C,SJ1*%
X77788100Y26300000D03*
X78611900Y26300000D03*
%TD*%
D11*
%TO.C,U3*%
X77700020Y74899980D03*
X76900020Y74899980D03*
X76099980Y74899980D03*
X75299980Y74899980D03*
X74499980Y74899980D03*
X73699980Y74899980D03*
X72899980Y74899980D03*
X72099980Y74899980D03*
X71299980Y74899980D03*
X70499990Y74899980D03*
X69699990Y74899980D03*
X68899990Y74899980D03*
X68099990Y74899980D03*
X67299990Y74899980D03*
X66499990Y74899980D03*
X65700000Y74899980D03*
D12*
X64100000Y73299980D03*
X64100000Y72499980D03*
X64100000Y71699980D03*
X64100000Y70899990D03*
X64100000Y70099990D03*
X64100000Y69299990D03*
X64100000Y68499990D03*
X64100000Y67699990D03*
X64100000Y66899990D03*
X64100000Y66100000D03*
X64100000Y65300000D03*
X64100000Y64500000D03*
X64100000Y63700000D03*
X64100000Y62900000D03*
X64100000Y62100000D03*
X64100000Y61300000D03*
D11*
X65700000Y59700010D03*
X66499990Y59700010D03*
X67299990Y59700010D03*
X68099990Y59700010D03*
X68899990Y59700010D03*
X69699990Y59700010D03*
X70499990Y59700010D03*
X71299980Y59700010D03*
X72099980Y59700010D03*
X72899980Y59700010D03*
X73699980Y59700010D03*
X74499980Y59700010D03*
X75299980Y59700010D03*
X76099980Y59700010D03*
X76900020Y59700010D03*
X77700020Y59700010D03*
D12*
X79300020Y61300000D03*
X79300020Y62100000D03*
X79300020Y62900000D03*
X79300020Y63700000D03*
X79300020Y64500000D03*
X79300020Y65300000D03*
X79300020Y66100000D03*
X79300020Y66899990D03*
X79300020Y67699990D03*
X79300020Y68499990D03*
X79300020Y69299990D03*
X79300020Y70099990D03*
X79300020Y70899990D03*
X79300020Y71699980D03*
X79300020Y72499980D03*
X79300020Y73299980D03*
%TD*%
M02*
