%TF.GenerationSoftware,KiCad,Pcbnew,7.0.2*%
%TF.CreationDate,2023-05-23T14:23:01-07:00*%
%TF.ProjectId,CW308T_87C51,43573330-3854-45f3-9837-4335312e6b69,rev?*%
%TF.SameCoordinates,Original*%
%TF.FileFunction,Soldermask,Top*%
%TF.FilePolarity,Negative*%
%FSLAX46Y46*%
G04 Gerber Fmt 4.6, Leading zero omitted, Abs format (unit mm)*
G04 Created by KiCad (PCBNEW 7.0.2) date 2023-05-23 14:23:01*
%MOMM*%
%LPD*%
G01*
G04 APERTURE LIST*
%ADD10R,1.550000X1.550000*%
%ADD11C,1.550000*%
%ADD12R,1.524000X1.524000*%
%ADD13C,1.524000*%
%ADD14R,2.794000X1.524000*%
%ADD15O,2.794000X1.524000*%
%ADD16R,1.524000X2.794000*%
%ADD17O,1.524000X2.794000*%
%ADD18C,6.350000*%
%ADD19R,0.635000X1.270000*%
%ADD20O,0.550000X1.450000*%
%ADD21O,1.450000X0.550000*%
G04 APERTURE END LIST*
%TO.C,SJ1*%
G36*
X77300000Y25500000D02*
G01*
X79100000Y25500000D01*
X79100000Y27100000D01*
X77300000Y27100000D01*
X77300000Y25500000D01*
G37*
%TD*%
D10*
%TO.C,J11*%
X83820000Y22860000D03*
D11*
X81280000Y22860000D03*
X78740000Y22860000D03*
%TD*%
D10*
%TO.C,J6*%
X55880000Y80264000D03*
D11*
X53340000Y80264000D03*
X50800000Y80264000D03*
%TD*%
D12*
%TO.C,U1*%
X73660000Y50800000D03*
D13*
X71120000Y53340000D03*
X71120000Y50800000D03*
X68580000Y53340000D03*
X68580000Y50800000D03*
X66040000Y53340000D03*
X63500000Y50800000D03*
X66040000Y50800000D03*
X63500000Y48260000D03*
X66040000Y48260000D03*
X63500000Y45720000D03*
X66040000Y45720000D03*
X63500000Y43180000D03*
X66040000Y43180000D03*
X63500000Y40640000D03*
X66040000Y40640000D03*
X63500000Y38100000D03*
X66040000Y35560000D03*
X66040000Y38100000D03*
X68580000Y35560000D03*
X68580000Y38100000D03*
X71120000Y35560000D03*
X71120000Y38100000D03*
X73660000Y35560000D03*
X73660000Y38100000D03*
X76200000Y35560000D03*
X76200000Y38100000D03*
X78740000Y35560000D03*
X81280000Y38100000D03*
X78740000Y38100000D03*
X81280000Y40640000D03*
X78740000Y40640000D03*
X81280000Y43180000D03*
X78740000Y43180000D03*
X81280000Y45720000D03*
X78740000Y45720000D03*
X81280000Y48260000D03*
X78740000Y48260000D03*
X81280000Y50800000D03*
X78740000Y53340000D03*
X78740000Y50800000D03*
X76200000Y53340000D03*
X76200000Y50800000D03*
X73660000Y53340000D03*
%TD*%
D10*
%TO.C,J1*%
X79756000Y87884000D03*
D11*
X77216000Y87884000D03*
X74676000Y87884000D03*
%TD*%
D14*
%TO.C,J10*%
X48260000Y68580000D03*
D15*
X48260000Y66040000D03*
X48260000Y63500000D03*
X48260000Y60960000D03*
X48260000Y58420000D03*
X48260000Y55880000D03*
X48260000Y53340000D03*
X48260000Y50800000D03*
X48260000Y48260000D03*
X48260000Y45720000D03*
X48260000Y43180000D03*
X48260000Y40640000D03*
X48260000Y38100000D03*
X48260000Y35560000D03*
X48260000Y33020000D03*
X48260000Y30480000D03*
X48260000Y27940000D03*
X48260000Y25400000D03*
X48260000Y22860000D03*
X48260000Y20320000D03*
D16*
X48260000Y15240000D03*
D17*
X50800000Y15240000D03*
X53340000Y15240000D03*
X55880000Y15240000D03*
X58420000Y15240000D03*
X60960000Y15240000D03*
X63500000Y15240000D03*
X66040000Y15240000D03*
X68580000Y15240000D03*
X71120000Y15240000D03*
X73660000Y15240000D03*
X76200000Y15240000D03*
X78740000Y15240000D03*
X81280000Y15240000D03*
X83820000Y15240000D03*
X86360000Y15240000D03*
X88900000Y15240000D03*
X91440000Y15240000D03*
X93980000Y15240000D03*
X96520000Y15240000D03*
D14*
X96520000Y68580000D03*
D15*
X96520000Y66040000D03*
X96520000Y63500000D03*
X96520000Y60960000D03*
X96520000Y58420000D03*
X96520000Y55880000D03*
X96520000Y53340000D03*
X96520000Y50800000D03*
X96520000Y48260000D03*
X96520000Y45720000D03*
X96520000Y43180000D03*
X96520000Y40640000D03*
X96520000Y38100000D03*
X96520000Y35560000D03*
X96520000Y33020000D03*
X96520000Y30480000D03*
X96520000Y27940000D03*
X96520000Y25400000D03*
X96520000Y22860000D03*
X96520000Y20320000D03*
D18*
X53340000Y73660000D03*
X71120000Y22860000D03*
X91440000Y73660000D03*
%TD*%
D14*
%TO.C,J8*%
X90170000Y68580000D03*
D15*
X90170000Y66040000D03*
X90170000Y63500000D03*
X90170000Y60960000D03*
X90170000Y58420000D03*
X90170000Y55880000D03*
X90170000Y53340000D03*
X90170000Y50800000D03*
X90170000Y48260000D03*
X90170000Y45720000D03*
X90170000Y43180000D03*
X90170000Y40640000D03*
X90170000Y38100000D03*
X90170000Y35560000D03*
X90170000Y33020000D03*
X90170000Y30480000D03*
X90170000Y27940000D03*
X90170000Y25400000D03*
X90170000Y22860000D03*
X90170000Y20320000D03*
%TD*%
D10*
%TO.C,J5*%
X67564000Y80264000D03*
D11*
X65024000Y80264000D03*
X62484000Y80264000D03*
%TD*%
D10*
%TO.C,J3*%
X67564000Y87884000D03*
D11*
X65024000Y87884000D03*
X62484000Y87884000D03*
%TD*%
D10*
%TO.C,J4*%
X55880000Y87884000D03*
D11*
X53340000Y87884000D03*
X50800000Y87884000D03*
%TD*%
D19*
%TO.C,SJ1*%
X77788100Y26300000D03*
X78611900Y26300000D03*
%TD*%
D10*
%TO.C,J7*%
X79756000Y80264000D03*
D11*
X77216000Y80264000D03*
X74676000Y80264000D03*
%TD*%
D14*
%TO.C,J9*%
X54610000Y68580000D03*
D15*
X54610000Y66040000D03*
X54610000Y63500000D03*
X54610000Y60960000D03*
X54610000Y58420000D03*
X54610000Y55880000D03*
X54610000Y53340000D03*
X54610000Y50800000D03*
X54610000Y48260000D03*
X54610000Y45720000D03*
X54610000Y43180000D03*
X54610000Y40640000D03*
X54610000Y38100000D03*
X54610000Y35560000D03*
X54610000Y33020000D03*
X54610000Y30480000D03*
X54610000Y27940000D03*
X54610000Y25400000D03*
X54610000Y22860000D03*
X54610000Y20320000D03*
%TD*%
D20*
%TO.C,U3*%
X77700020Y74899980D03*
X76900020Y74899980D03*
X76099980Y74899980D03*
X75299980Y74899980D03*
X74499980Y74899980D03*
X73699980Y74899980D03*
X72899980Y74899980D03*
X72099980Y74899980D03*
X71299980Y74899980D03*
X70499990Y74899980D03*
X69699990Y74899980D03*
X68899990Y74899980D03*
X68099990Y74899980D03*
X67299990Y74899980D03*
X66499990Y74899980D03*
X65700000Y74899980D03*
D21*
X64100000Y73299980D03*
X64100000Y72499980D03*
X64100000Y71699980D03*
X64100000Y70899990D03*
X64100000Y70099990D03*
X64100000Y69299990D03*
X64100000Y68499990D03*
X64100000Y67699990D03*
X64100000Y66899990D03*
X64100000Y66100000D03*
X64100000Y65300000D03*
X64100000Y64500000D03*
X64100000Y63700000D03*
X64100000Y62900000D03*
X64100000Y62100000D03*
X64100000Y61300000D03*
D20*
X65700000Y59700010D03*
X66499990Y59700010D03*
X67299990Y59700010D03*
X68099990Y59700010D03*
X68899990Y59700010D03*
X69699990Y59700010D03*
X70499990Y59700010D03*
X71299980Y59700010D03*
X72099980Y59700010D03*
X72899980Y59700010D03*
X73699980Y59700010D03*
X74499980Y59700010D03*
X75299980Y59700010D03*
X76099980Y59700010D03*
X76900020Y59700010D03*
X77700020Y59700010D03*
D21*
X79300020Y61300000D03*
X79300020Y62100000D03*
X79300020Y62900000D03*
X79300020Y63700000D03*
X79300020Y64500000D03*
X79300020Y65300000D03*
X79300020Y66100000D03*
X79300020Y66899990D03*
X79300020Y67699990D03*
X79300020Y68499990D03*
X79300020Y69299990D03*
X79300020Y70099990D03*
X79300020Y70899990D03*
X79300020Y71699980D03*
X79300020Y72499980D03*
X79300020Y73299980D03*
%TD*%
D10*
%TO.C,J12*%
X59258200Y60020200D03*
D11*
X59258200Y57480200D03*
%TD*%
D10*
%TO.C,J2*%
X92456000Y87884000D03*
D11*
X89916000Y87884000D03*
X87376000Y87884000D03*
%TD*%
M02*
